<?xml version="1.0" standalone="no"?>
<!DOCTYPE svg PUBLIC "-//W3C//DTD SVG 20010904//EN"
 "http://www.w3.org/TR/2001/REC-SVG-20010904/DTD/svg10.dtd">
<svg version="1.0" xmlns="http://www.w3.org/2000/svg"
 width="1316.000000pt" height="863.000000pt" viewBox="0 0 1316.000000 863.000000"
 preserveAspectRatio="xMidYMid meet">
<metadata>
Created by potrace 1.16, written by Peter Selinger 2001-2019
</metadata>
<g transform="translate(0.000000,863.000000) scale(0.100000,-0.100000)"
fill="#000000" stroke="none">
<path d="M0 4315 l0 -4315 2300 0 2300 0 0 38 c0 21 7 47 15 58 8 10 15 35 15
55 0 19 4 39 10 45 5 5 10 36 11 68 1 32 9 72 18 89 17 33 21 37 46 37 9 0 15
9 15 25 0 16 4 23 13 19 8 -3 24 -1 38 4 37 14 49 4 49 -39 0 -38 1 -39 35
-39 19 0 35 -4 35 -10 0 -5 -4 -10 -10 -10 -5 0 -10 -12 -10 -27 0 -20 -3 -24
-9 -15 -5 9 -10 -7 -13 -44 -3 -32 -10 -60 -16 -62 -7 -2 -12 -12 -12 -22 0
-10 -5 -20 -11 -22 -6 -2 -12 -15 -13 -28 -1 -14 -7 -24 -14 -22 -7 1 -12 -9
-12 -25 0 -21 -3 -24 -9 -14 -8 12 -11 8 -17 -14 -6 -26 -8 -27 -15 -10 -7 17
-8 18 -8 2 -1 -9 -4 -16 -8 -15 -5 2 -10 -1 -13 -7 -3 -7 1408 -11 4222 -13
l4228 -2 0 4315 0 4315 -6580 0 -6580 0 0 -4315z m8027 -711 c0 -7 -4 -11 -8
-9 -9 6 -5 -22 5 -32 4 -4 6 -3 4 2 -1 6 2 11 7 12 6 0 9 -4 7 -10 -2 -6 6 -3
17 7 11 10 17 25 14 34 -4 13 -3 14 5 4 5 -8 12 -13 16 -13 3 0 13 -2 21 -6
13 -4 14 -8 3 -22 -7 -9 -3 -6 10 7 12 13 22 18 22 12 0 -6 4 -9 8 -6 5 3 9
-1 9 -9 0 -10 -4 -12 -12 -5 -8 7 -12 5 -12 -5 0 -8 4 -12 8 -10 3 3 12 -2 19
-10 11 -13 15 -13 29 -2 21 17 43 16 48 -3 4 -13 3 -13 -6 0 -6 8 -11 10 -11
4 0 -19 13 -24 28 -11 13 10 15 9 10 -11 -6 -20 -4 -22 10 -10 9 7 13 8 9 2
-3 -6 5 -22 18 -34 14 -13 25 -27 25 -32 0 -5 -12 4 -26 19 -15 15 -21 21 -15
12 6 -9 7 -20 3 -24 -4 -5 -2 -5 4 -2 7 4 15 0 18 -9 5 -14 9 -14 23 -3 11 9
14 10 10 2 -5 -8 11 -30 40 -59 26 -25 41 -43 33 -39 -8 4 -4 -3 10 -15 14
-12 18 -19 10 -15 -8 4 -6 -1 5 -10 11 -9 19 -20 18 -25 -2 -5 4 -7 12 -4 11
4 13 2 9 -9 -3 -8 0 -18 7 -23 8 -5 10 -3 4 7 -8 12 -6 12 8 0 9 -7 15 -17 12
-21 -3 -5 0 -12 6 -15 5 -4 8 -13 5 -20 -3 -8 3 -19 12 -27 16 -12 16 -11 2 7
-14 19 -14 19 3 6 10 -8 16 -19 14 -25 -2 -6 2 -15 9 -21 7 -5 14 -19 16 -30
2 -11 6 -23 11 -26 7 -5 18 -41 19 -66 1 -7 5 -13 10 -13 5 0 6 -4 3 -10 -3
-5 -1 -10 5 -10 6 0 9 -4 6 -9 -3 -4 1 -17 9 -27 8 -10 15 -41 16 -69 1 -40 3
-45 9 -25 l8 25 2 -25 c1 -14 4 -34 6 -45 3 -11 6 -30 7 -42 2 -12 6 -25 10
-29 4 -4 7 -14 6 -23 0 -12 -3 -11 -9 4 -6 14 -9 15 -9 5 -1 -9 3 -20 8 -25
12 -13 20 -144 9 -151 -12 -7 -10 -24 3 -24 5 0 7 5 3 12 -5 7 -3 8 6 3 10 -6
10 -11 -3 -20 -9 -7 -15 -14 -12 -17 14 -13 11 -55 -6 -73 -10 -11 -19 -24
-21 -30 -2 -5 -6 -9 -10 -8 -5 2 -8 -5 -9 -15 0 -14 -2 -14 -9 3 -5 12 -9 14
-9 6 -1 -18 -38 23 -47 51 -3 11 -12 17 -19 15 -7 -3 -12 1 -11 11 0 10 -5 16
-14 14 -12 -3 -12 -1 -3 9 10 10 7 17 -13 36 -14 12 -33 23 -42 23 -14 0 -15
2 -3 9 21 14 -3 40 -32 35 -12 -2 -16 -2 -10 2 15 7 -7 34 -29 34 -10 0 -9 3
2 10 9 6 10 10 3 10 -6 0 -15 9 -18 20 -4 11 -11 18 -16 15 -5 -4 -9 1 -9 9 0
8 -5 18 -12 22 -7 5 -8 3 -3 -6 5 -9 4 -11 -3 -6 -7 4 -12 17 -12 29 0 18 -2
19 -10 7 -7 -11 -10 -7 -10 18 0 20 -4 31 -10 27 -5 -3 -10 3 -10 15 0 12 -4
18 -10 15 -5 -3 -10 -1 -10 4 0 6 -3 10 -7 10 -5 -1 -15 -1 -23 0 -12 1 -13 3
-1 10 17 11 4 34 -15 27 -7 -3 -16 -1 -19 4 -4 6 1 10 9 10 8 0 18 5 22 12 5
7 3 8 -5 4 -15 -9 -51 21 -51 42 0 8 -8 21 -17 29 -11 9 -12 12 -3 7 8 -4 5 4
-7 18 -13 13 -23 32 -23 42 0 9 -4 15 -9 12 -5 -3 -12 1 -15 10 -4 10 -2 13 7
8 6 -4 3 2 -7 14 -11 12 -15 22 -11 22 4 0 0 10 -11 22 -10 12 -13 18 -6 14
11 -7 11 -4 1 12 -7 12 -16 19 -20 16 -4 -2 -10 8 -13 21 -4 14 -10 24 -15 21
-4 -3 -7 6 -6 19 2 14 -2 23 -8 22 -7 -1 -13 10 -15 26 -2 15 -8 27 -13 27 -5
0 -9 8 -9 19 0 10 -7 24 -15 31 -8 7 -15 18 -15 24 0 6 5 4 10 -4 8 -12 9 -10
7 7 -2 12 -7 26 -12 30 -4 5 -5 2 0 -6 5 -9 4 -12 -2 -8 -5 3 -8 23 -7 44 3
27 1 34 -6 23 -8 -12 -10 -9 -10 13 0 25 9 32 34 28 5 -1 3 6 -5 15 -15 18
-14 20 4 43 7 8 7 12 2 9 -6 -4 -17 2 -24 14 -7 11 -8 17 -2 14 5 -4 14 2 20
11 6 11 11 13 11 5 0 -7 5 -10 10 -7 6 4 8 10 6 14 -3 4 1 8 8 8 7 0 13 -6 13
-13z m-2965 -417 c2 -27 7 -46 13 -43 14 5 14 -67 0 -76 -7 -5 -7 -8 0 -8 6 0
11 -9 12 -20 1 -12 -3 -18 -9 -14 -6 4 -6 -1 1 -14 8 -15 8 -23 0 -28 -7 -4
-7 -10 -1 -16 13 -13 3 -59 -12 -51 -8 4 -8 3 0 -6 9 -10 9 -19 -2 -39 -7 -14
-10 -30 -7 -35 4 -6 1 -7 -6 -3 -7 5 -10 14 -7 21 3 8 -3 19 -12 27 -15 11
-15 11 -6 -2 7 -9 8 -23 3 -35 -7 -18 -8 -17 -10 8 -1 15 -2 33 -3 40 -1 6 3
18 8 26 8 11 8 13 0 8 -7 -4 -14 0 -18 8 -3 8 -1 17 5 20 5 4 6 12 2 18 -4 6
-7 32 -7 58 -1 26 -4 51 -8 55 -5 4 -3 13 3 21 9 10 8 13 -2 13 -10 1 -8 4 4
11 9 5 17 15 17 22 0 8 -4 7 -10 -3 -6 -10 -8 -5 -6 19 1 18 8 36 15 40 6 4
13 18 14 29 3 41 26 0 29 -51z m-826 -687 c-4 8 2 4 13 -10 11 -14 21 -29 21
-33 0 -5 5 -5 10 -2 6 4 10 -24 11 -77 0 -46 2 -92 5 -103 2 -11 5 -32 7 -47
1 -14 5 -24 9 -22 11 7 4 -50 -7 -59 -6 -6 -6 -10 3 -14 6 -2 9 -9 6 -15 -3
-5 2 -16 12 -24 11 -9 14 -13 7 -10 -6 3 -18 3 -27 0 -13 -5 -16 -23 -16 -91
0 -74 -2 -84 -16 -79 -9 3 -20 6 -25 6 -5 0 -9 9 -9 19 0 16 -6 18 -37 15 -20
-2 -40 -9 -45 -16 -5 -9 -8 -7 -9 7 -1 19 -2 19 -6 1 -4 -15 -7 -16 -13 -5 -6
9 -10 6 -15 -14 -4 -15 -11 -27 -16 -27 -5 0 -9 -16 -9 -36 0 -25 7 -43 23
-58 l23 -22 -23 -19 c-19 -17 -23 -30 -23 -82 0 -49 -3 -63 -15 -63 -9 0 -15
9 -15 23 0 13 -10 33 -22 45 -18 16 -23 31 -22 64 1 24 -4 49 -10 57 -8 11 -8
13 1 8 19 -12 23 6 28 120 l5 109 -49 3 c-43 2 -50 -1 -56 -20 -9 -28 5 -199
16 -199 5 0 6 -16 3 -36 -3 -21 -2 -34 4 -31 5 4 9 0 9 -8 0 -8 -4 -12 -9 -9
-7 5 -12 -10 -9 -29 1 -5 -3 -6 -9 -2 -6 3 -7 12 -4 18 4 7 3 8 -2 4 -5 -5 -9
-12 -10 -15 -4 -33 -47 -116 -59 -113 -6 1 -10 44 -10 104 0 83 -3 107 -17
120 -9 9 -21 17 -27 17 -6 0 -11 7 -11 15 0 8 -3 14 -7 14 -22 -4 -33 3 -34
19 -1 16 -2 16 -6 0 -4 -17 -6 -17 -21 -2 -14 15 -17 15 -29 -2 -10 -13 -13
-14 -14 -3 0 12 -1 12 -6 -1 -8 -20 -29 -40 -42 -40 -7 0 -11 27 -11 71 0 53
3 68 13 63 6 -4 4 2 -5 13 -20 21 -25 83 -7 83 6 0 8 9 4 20 -4 11 -2 20 4 20
7 0 11 47 11 138 0 79 4 131 9 124 6 -10 10 -8 15 11 3 14 13 28 23 31 15 6
15 5 2 -11 -8 -10 2 -2 22 19 20 21 44 38 53 38 10 0 14 5 10 12 -4 6 -3 8 4
4 5 -3 14 -25 18 -49 5 -34 8 -38 15 -22 5 13 8 -4 8 -48 1 -38 5 -66 10 -63
8 6 26 -40 22 -57 -1 -4 6 -15 14 -23 14 -14 15 -13 14 13 -3 50 -1 55 15 41
10 -9 11 -15 2 -20 -7 -5 -5 -8 7 -8 9 0 17 5 17 12 0 6 3 8 6 5 4 -4 2 -12
-3 -19 -6 -7 -9 -21 -8 -31 2 -11 -1 -15 -8 -10 -7 4 -6 0 1 -9 8 -9 12 -25
11 -35 -5 -36 10 -61 36 -58 14 1 22 -2 18 -7 -3 -6 6 -2 21 7 24 16 39 34 16
20 -6 -4 -10 21 -9 67 0 50 3 67 9 53 8 -18 9 -18 10 5 2 14 2 28 1 33 0 4 3
7 7 7 5 0 9 6 9 13 0 22 41 102 62 121 11 10 18 24 14 30 -3 6 -3 8 2 4 4 -4
22 4 40 17 17 14 35 22 38 18 4 -3 7 -1 7 7 0 10 4 10 17 -1 14 -12 16 -12 9
1z m2966 -55 c-2 -20 -12 -41 -21 -48 -9 -7 -16 -25 -15 -42 1 -40 -5 -48 -24
-33 -14 11 -14 11 -5 -6 11 -20 7 -52 -11 -75 -9 -12 -8 -13 4 -6 12 6 13 5 3
-6 -7 -7 -13 -26 -13 -41 0 -15 -4 -28 -10 -28 -5 0 -13 -18 -16 -40 -4 -22
-10 -40 -15 -40 -5 0 -9 -17 -9 -37 0 -28 3 -34 10 -23 6 10 10 11 10 3 0 -9
16 -13 44 -13 26 0 48 -6 56 -15 14 -17 145 -22 155 -5 3 6 22 10 41 10 29 0
33 -2 22 -14 -7 -8 -14 -10 -16 -5 -6 14 -19 10 -19 -6 0 -9 14 -17 34 -21 18
-3 30 -10 27 -15 -3 -5 13 -9 35 -9 22 0 46 -7 55 -15 8 -8 31 -15 50 -15 20
0 36 -4 36 -10 0 -5 6 -10 14 -10 8 0 21 -6 29 -14 8 -8 26 -16 42 -18 31 -3
100 -88 78 -95 -7 -3 -13 -11 -13 -19 0 -8 -5 -14 -11 -14 -5 0 -7 -5 -4 -11
4 -6 -2 -13 -14 -16 -11 -3 -18 -9 -15 -14 3 -5 -2 -9 -11 -9 -9 0 -23 -7 -31
-15 -9 -8 -26 -15 -40 -15 -13 0 -24 -6 -24 -13 0 -8 -14 -11 -45 -9 -34 3
-46 0 -51 -12 -4 -10 -18 -16 -35 -16 -16 0 -29 -5 -29 -11 0 -5 -3 -8 -7 -6
-15 9 -54 -13 -47 -25 5 -8 0 -7 -11 2 -11 9 -16 10 -11 3 5 -9 0 -13 -14 -13
-12 0 -18 5 -15 10 4 6 -5 10 -19 10 -14 0 -26 -4 -26 -10 0 -5 -11 -10 -25
-10 -16 0 -25 -6 -25 -16 0 -11 5 -14 16 -10 10 4 14 1 12 -6 -3 -7 -15 -15
-28 -16 -13 -2 -30 -10 -37 -18 -19 -18 -43 -18 -43 1 0 8 -9 15 -20 15 -11 0
-20 -4 -20 -10 0 -5 -4 -10 -9 -10 -4 0 -6 12 -3 26 4 25 3 26 -22 20 -19 -5
-26 -3 -26 9 0 8 -7 15 -15 15 -8 0 -15 7 -15 15 0 11 -11 15 -35 15 -22 0
-38 -6 -41 -15 -4 -8 -17 -15 -30 -15 -37 0 -30 -35 11 -58 19 -11 19 -11 1
-12 -10 0 -24 -7 -31 -16 -8 -12 -26 -16 -66 -15 -30 0 -55 5 -57 11 -2 5 -28
10 -58 10 -53 0 -54 1 -54 29 0 16 7 36 15 45 8 8 15 18 15 23 0 5 11 10 25
11 16 1 25 -3 25 -13 0 -12 14 -15 65 -15 51 0 65 3 65 15 0 12 -13 15 -59 15
-33 0 -63 5 -66 10 -3 6 1 10 9 10 9 0 16 6 16 13 0 8 4 7 10 -3 6 -9 10 -10
10 -3 0 6 17 22 38 34 20 13 39 27 40 31 2 4 10 8 18 8 19 0 59 41 47 49 -5 3
-15 15 -22 26 -11 19 -11 19 -9 1 2 -10 -3 -21 -11 -24 -11 -3 -12 2 -7 24 5
21 4 25 -4 14 -5 -8 -10 -23 -10 -32 0 -10 -7 -18 -15 -18 -8 0 -20 -9 -27
-20 -7 -11 -18 -20 -25 -20 -7 0 -13 -4 -13 -10 0 -5 -4 -10 -10 -10 -14 0
-13 53 1 67 7 7 9 18 6 26 -4 11 -15 13 -48 7 -24 -5 -45 -13 -47 -19 -2 -6
-10 -11 -18 -11 -8 0 -14 -7 -14 -15 0 -8 -4 -15 -10 -15 -5 0 -10 -17 -10
-37 0 -69 -27 -81 -32 -14 -2 25 -7 31 -25 31 -15 0 -23 -6 -24 -17 0 -12 -2
-14 -6 -5 -3 9 -12 -2 -23 -26 -10 -22 -24 -43 -31 -48 -12 -6 -12 -5 -1 8 10
13 9 15 -13 10 -14 -2 -25 -8 -25 -13 0 -5 -6 -9 -14 -9 -8 0 -16 -7 -20 -15
-3 -8 -15 -15 -26 -15 -17 0 -20 -6 -20 -46 0 -25 -4 -43 -9 -40 -5 4 -11 1
-13 -5 -3 -8 -39 -12 -102 -13 -75 -1 -101 -5 -109 -17 -7 -8 -20 -18 -29 -22
-13 -4 -17 -23 -21 -89 -5 -85 -25 -178 -39 -178 -5 0 -8 -13 -8 -29 0 -16 -7
-36 -15 -45 -8 -8 -15 -22 -15 -32 0 -9 -11 -27 -25 -40 -14 -13 -25 -28 -25
-34 0 -18 -37 -48 -66 -54 -25 -5 -32 -2 -46 24 -12 21 -13 30 -5 30 7 0 20
15 31 33 10 17 21 27 23 20 8 -23 33 -1 34 31 0 25 2 27 8 11 7 -16 9 -13 15
18 4 20 11 37 16 37 6 0 10 10 10 23 0 13 7 32 15 43 8 10 15 35 15 55 0 20 7
50 15 65 8 16 15 38 15 49 0 12 6 27 13 34 10 11 10 14 0 18 -7 3 -13 11 -13
19 0 8 6 14 13 14 26 0 -19 20 -46 20 -16 0 -26 4 -23 9 3 5 -19 12 -49 16
-30 3 -55 11 -55 16 0 5 -11 9 -25 9 -14 0 -25 4 -25 9 0 5 -23 12 -50 16 -28
4 -47 11 -44 16 3 5 -9 9 -25 9 -21 0 -31 5 -31 15 0 13 31 15 220 15 143 0
220 -4 220 -10 0 -6 11 -8 25 -4 15 4 32 1 40 -6 9 -7 19 -9 23 -5 4 4 1 10
-5 12 -15 5 -19 173 -4 173 5 0 11 18 13 40 l4 40 -36 -6 c-19 -4 -37 -10 -40
-15 -3 -4 -23 -10 -45 -14 -22 -4 -45 -12 -52 -17 -17 -14 -33 -1 -33 28 0 13
-4 24 -9 24 -9 0 -25 56 -22 80 2 12 0 13 -8 1 -5 -8 -19 -12 -35 -9 -20 4
-26 1 -26 -13 0 -11 -7 -19 -15 -19 -8 0 -15 -4 -15 -10 0 -5 -10 -12 -23 -15
-20 -6 -24 -13 -26 -58 -1 -29 -6 -53 -12 -55 -5 -2 -9 -12 -9 -23 0 -10 -7
-19 -15 -19 -11 0 -15 -11 -15 -40 l0 -40 -65 0 c-51 0 -65 3 -65 15 0 8 -4
15 -10 15 -14 0 -13 43 2 58 9 9 9 12 0 12 -15 0 -17 96 -2 105 6 3 10 17 10
30 0 13 4 25 9 27 4 2 12 13 15 26 6 17 3 22 -11 22 -11 0 -24 5 -31 12 -9 9
-12 8 -12 -4 0 -9 -4 -19 -9 -22 -5 -4 -7 3 -4 14 5 18 0 20 -43 21 -140 4
-199 9 -202 19 -2 5 -21 10 -43 10 -24 0 -39 5 -40 13 0 10 -2 10 -6 0 -2 -7
-9 -13 -14 -13 -6 0 -7 5 -3 11 5 8 2 9 -12 1 -15 -8 -23 -7 -37 6 -14 13 -24
14 -45 6 -25 -10 -27 -9 -29 19 -3 37 -11 46 -24 27 -6 -10 -12 -11 -16 -5 -5
6 -23 23 -42 39 -19 15 -28 27 -20 26 43 -6 139 1 134 10 -4 6 5 5 20 -2 22
-10 28 -9 36 3 6 9 9 10 9 2 0 -16 155 -16 181 0 15 9 24 9 39 -1 24 -15 50
-16 50 -1 0 6 12 9 28 8 15 -1 45 2 66 6 31 6 42 4 51 -9 11 -15 13 -15 19 -1
3 8 12 15 21 15 22 0 54 31 48 46 -3 8 -1 14 5 14 5 0 12 37 15 81 3 45 10 86
16 92 6 6 11 23 11 38 0 61 32 38 45 -31 5 -30 10 -35 38 -37 36 -3 47 9 47
52 0 20 3 26 9 17 6 -10 10 -4 15 20 9 46 26 18 26 -44 0 -27 5 -48 10 -48 6
0 10 -39 10 -97 0 -54 5 -105 10 -113 7 -12 36 -16 130 -19 163 -4 163 -4 179
66 7 32 15 94 18 137 2 44 8 74 12 67 5 -8 11 4 15 31 6 35 9 40 19 28 7 -8
21 -17 32 -18 11 -2 25 -7 30 -11 10 -8 57 11 56 23 -1 3 8 15 19 26 20 20 21
19 20 -15 0 -3 7 -21 15 -41 10 -25 15 -71 15 -150 0 -63 3 -113 8 -113 19 3
33 -2 28 -10 -8 -12 18 -21 60 -21 19 0 34 -4 34 -10 0 -14 37 -13 46 2 4 6 3
8 -4 4 -18 -11 -24 13 -8 30 14 13 22 58 17 87 -1 5 3 6 9 2 6 -4 13 7 16 25
4 17 9 28 12 26 3 -3 12 9 21 26 25 49 41 47 41 -5 0 -58 11 -112 20 -98 4 7
11 2 18 -14 7 -15 8 -25 2 -25 -6 0 -10 -9 -10 -20 0 -13 9 -22 25 -26 14 -3
25 -10 25 -15 0 -15 27 -10 45 7 9 10 14 25 12 36 -3 10 -1 16 4 12 5 -3 13 5
18 18 5 13 18 34 30 48 11 14 25 30 30 36 5 7 13 28 16 48 4 20 11 36 16 36 5
0 9 16 9 36 0 26 4 35 13 31 10 -4 13 7 12 42 -1 34 3 48 12 48 7 0 14 -6 14
-14 3 -27 4 -32 13 -40 5 -5 6 5 3 24 -4 20 -2 33 6 37 7 2 12 5 12 5 1 1 -1
-15 -3 -34z m-2500 -260 c3 -45 15 -56 70 -58 25 -1 41 -6 38 -12 -3 -5 -9 -9
-13 -7 -4 1 -3 -7 3 -18 10 -18 8 -19 -12 -11 -13 5 -33 5 -46 0 -19 -7 -21
-12 -12 -28 6 -12 6 -22 1 -25 -5 -4 -12 0 -14 6 -7 17 -9 -50 -7 -212 1 -74
6 -139 11 -144 9 -10 13 -166 4 -166 -11 0 -45 35 -45 47 0 7 -7 13 -15 13 -8
0 -15 7 -15 16 0 8 -4 12 -10 9 -9 -5 -15 15 -11 37 0 4 -6 5 -14 2 -11 -5
-15 1 -15 18 0 13 -6 30 -12 37 -7 8 -8 11 -2 8 12 -7 12 29 -1 40 -4 5 -5 3
-1 -4 3 -6 1 -15 -6 -19 -7 -4 -10 -4 -6 1 4 4 3 16 -2 25 -8 15 -6 17 13 13
18 -4 19 -3 7 6 -13 9 -12 11 5 11 17 0 17 2 5 10 -8 5 -10 10 -5 10 6 0 12
14 13 32 2 18 12 42 22 53 16 17 20 35 20 93 0 41 -4 72 -10 72 -5 0 -10 9
-10 21 0 11 -4 18 -9 14 -5 -3 -12 -1 -16 5 -4 6 -11 8 -16 5 -5 -4 -9 -2 -9
3 0 5 -7 9 -15 9 -8 0 -15 -4 -15 -9 0 -4 -10 -8 -23 -8 -13 0 -29 -6 -36 -12
-8 -8 -11 -8 -8 -2 4 7 -3 14 -16 18 -21 6 -21 7 -4 20 10 8 30 12 44 10 35
-7 35 -7 68 -4 26 1 27 3 10 10 -15 7 -10 9 23 9 l42 1 0 49 c0 27 3 57 6 66
10 26 43 -16 46 -60z m4081 -124 c4 -1 6 -13 4 -28 -3 -16 -10 -27 -16 -25 -6
1 -10 -1 -10 -5 4 -22 -2 -33 -13 -27 -8 5 -7 0 2 -11 12 -15 12 -17 1 -10
-11 6 -13 2 -9 -19 3 -14 1 -29 -4 -32 -4 -3 -6 -10 -3 -15 4 -5 1 -9 -5 -9
-7 0 -9 -7 -6 -16 3 -8 2 -12 -4 -9 -6 3 -10 -3 -10 -14 0 -12 -4 -21 -10 -21
-5 0 -10 -6 -10 -14 0 -8 -8 -22 -17 -32 -10 -10 -17 -19 -15 -21 6 -8 1 -23
-7 -18 -5 3 -12 -4 -16 -15 -3 -11 -11 -20 -16 -20 -5 0 -9 -7 -9 -15 0 -8 -4
-15 -9 -15 -5 0 -11 -9 -14 -21 -3 -12 -10 -18 -16 -14 -6 3 -11 -1 -11 -11 0
-9 -20 -36 -45 -61 -25 -24 -45 -41 -45 -38 0 4 -16 -9 -35 -29 -19 -20 -38
-36 -41 -36 -4 0 -16 -10 -28 -23 -23 -25 -91 -77 -101 -77 -3 0 -16 -11 -29
-25 -13 -14 -30 -25 -38 -25 -9 0 -21 -7 -28 -15 -7 -8 -19 -15 -26 -15 -8 0
-14 -3 -14 -8 0 -4 -9 -12 -19 -17 -91 -47 -116 -61 -119 -67 -2 -5 -9 -8 -16
-8 -7 0 -17 -5 -24 -12 -6 -6 -22 -13 -34 -15 -13 -2 -24 -8 -26 -13 -2 -6
-17 -10 -33 -10 -18 0 -28 -4 -24 -10 3 -5 1 -10 -4 -10 -6 0 -11 5 -11 10 0
6 -13 10 -30 10 -18 0 -30 -5 -30 -13 0 -7 -10 -13 -22 -14 -11 -1 -24 -6 -27
-11 -9 -14 -41 -10 -41 4 0 7 10 20 22 28 17 12 19 19 10 28 -9 9 -13 7 -18
-5 -3 -9 -17 -17 -30 -17 -13 0 -24 -4 -24 -9 0 -5 -9 -13 -20 -16 -11 -4 -18
-11 -15 -16 4 -5 -5 -9 -19 -9 -14 0 -26 -4 -26 -9 0 -14 -32 -23 -44 -11 -7
7 -4 14 10 24 19 15 19 15 -1 31 -11 9 -13 13 -5 9 12 -5 11 -3 -2 11 -16 17
-18 16 -51 -19 -19 -20 -39 -36 -46 -36 -6 0 -11 -4 -11 -10 0 -5 -11 -12 -25
-16 -14 -3 -25 -10 -25 -15 0 -5 -7 -9 -15 -9 -8 0 -15 -4 -15 -10 0 -5 -4
-10 -10 -10 -5 0 -10 9 -10 20 0 11 4 20 9 20 5 0 12 17 16 37 4 21 11 40 16
43 4 3 10 21 11 39 2 23 8 36 20 39 10 2 18 8 18 13 0 14 38 11 43 -3 3 -10 7
-10 20 1 10 7 17 10 17 6 0 -4 13 8 30 26 16 19 30 41 30 50 0 9 7 22 15 29 8
7 15 19 15 27 0 7 7 16 15 19 8 4 15 13 15 21 0 8 4 12 9 8 14 -8 10 -66 -6
-72 -8 -3 -13 -21 -13 -48 0 -45 13 -67 24 -40 3 8 12 15 21 15 8 0 15 5 15
10 0 15 57 12 63 -2 4 -9 6 -8 6 2 1 20 48 70 65 70 8 0 16 10 20 22 4 18 8
20 17 11 10 -10 10 -18 1 -38 -10 -22 -9 -25 8 -25 11 0 20 3 20 8 0 4 13 15
29 24 21 12 31 13 34 5 2 -7 8 10 12 37 5 32 10 44 16 35 6 -10 9 -8 9 9 0 16
9 27 33 37 17 8 25 15 17 16 -8 0 -1 5 15 10 28 9 95 85 95 109 0 5 5 10 10
10 6 0 10 14 10 30 0 20 5 30 15 30 10 0 15 10 15 31 0 17 -4 28 -10 24 -5 -3
-10 0 -10 7 0 7 -7 26 -16 43 -10 19 -11 31 -5 33 6 2 11 10 11 17 0 7 12 21
28 31 15 9 46 36 69 58 75 74 103 88 103 53 0 -13 -4 -27 -10 -33 -6 -6 -6
-21 -1 -39 5 -17 10 -22 10 -12 1 10 9 17 20 17 10 0 33 13 52 29 18 16 37 27
41 25 5 -3 8 -2 7 3 -5 29 24 53 37 31 4 -7 3 -8 -4 -4 -13 8 -13 8 -16 -47
-3 -45 2 -50 29 -31 10 8 15 14 9 15 -10 0 33 20 54 25 12 2 35 -29 27 -38 -3
-3 2 -5 10 -5 8 0 12 3 10 7 -2 4 3 16 11 26 9 10 12 12 8 4 -7 -13 -5 -13 9
-1 9 7 17 23 18 35 0 20 1 21 9 1 9 -22 11 -16 13 43 2 36 23 51 72 47 22 -2
44 -4 48 -4z m-6263 -128 c0 -7 4 -13 9 -13 13 0 20 -25 14 -48 -3 -13 -11
-18 -19 -15 -8 3 -14 0 -14 -7 0 -14 -40 -49 -57 -50 -20 0 -18 -100 2 -100 8
0 23 -10 35 -22 11 -12 20 -18 20 -12 0 5 5 1 11 -8 6 -11 22 -18 39 -18 17 0
30 -4 30 -10 0 -5 12 -10 26 -10 14 0 32 -7 40 -15 10 -10 35 -15 69 -15 29 0
55 -4 57 -9 2 -4 31 -11 66 -14 49 -4 62 -2 62 9 0 8 5 14 11 14 5 0 9 -10 7
-22 -3 -20 2 -23 37 -26 22 -2 43 -8 46 -14 3 -5 54 -10 113 -11 77 -2 106 -5
106 -14 0 -9 19 -13 61 -13 33 0 58 -4 55 -9 -4 -5 21 -11 54 -13 54 -3 63 0
76 20 10 16 24 22 49 22 19 0 35 -4 35 -10 0 -5 -16 -10 -35 -10 -46 0 -45
-17 1 -22 24 -3 38 0 41 9 3 8 21 13 45 13 21 0 37 -4 34 -9 -11 -17 6 -41 28
-41 12 0 27 -5 34 -12 9 -9 12 -9 12 0 0 8 17 12 45 12 28 0 45 -4 45 -12 0
-9 3 -9 13 1 10 10 9 14 -5 22 -10 6 -18 18 -18 27 1 15 2 15 13 2 14 -18 59
-20 65 -2 3 9 10 8 32 -3 15 -8 44 -15 64 -17 20 -1 36 -6 36 -10 0 -9 -22
-12 -57 -9 -13 1 -23 -3 -23 -9 0 -5 18 -10 40 -10 27 0 43 -5 46 -15 4 -8 10
-15 16 -15 5 0 6 5 3 10 -3 6 6 5 21 -2 22 -10 28 -10 32 0 2 6 8 12 13 12 6
0 7 -4 4 -10 -3 -5 3 -10 14 -10 14 0 21 6 21 19 0 11 5 23 12 27 6 4 8 3 4
-4 -7 -11 30 -42 51 -42 7 0 13 9 13 20 0 11 5 20 11 20 5 0 8 -4 5 -8 -7 -12
10 -35 22 -28 6 3 8 15 5 26 -4 15 0 20 15 20 11 0 23 -6 25 -12 4 -10 8 -10
15 1 8 11 14 9 31 -8 12 -12 20 -29 19 -39 -2 -13 5 -17 35 -19 20 0 37 3 37
8 0 5 -4 9 -10 9 -5 0 -10 7 -10 15 0 20 16 19 24 -1 4 -9 9 -14 13 -11 3 4
12 2 19 -4 10 -8 17 -7 29 4 19 20 19 27 0 27 -18 0 -20 16 -4 26 7 4 16 -1
21 -10 8 -14 13 -15 24 -5 11 9 18 9 26 1 9 -9 8 -12 -5 -12 -9 0 -17 -4 -17
-10 0 -5 11 -10 25 -10 16 0 25 -6 25 -15 0 -20 12 -19 32 4 15 18 15 20 0 27
-9 4 -20 6 -24 6 -5 -1 -8 2 -8 7 0 13 37 21 96 21 45 0 54 -4 74 -30 18 -24
26 -28 31 -17 5 9 29 15 66 16 64 2 66 3 70 33 2 12 6 24 8 26 8 8 45 -30 45
-45 0 -7 11 -13 25 -13 16 0 25 6 25 15 0 8 5 15 10 15 6 0 10 -7 10 -15 0 -9
9 -15 25 -15 27 0 32 -9 13 -28 -16 -16 7 -33 31 -24 14 5 14 3 3 -11 -10 -12
-11 -21 -3 -34 9 -16 10 -16 11 6 0 16 4 21 15 17 11 -4 15 1 15 19 0 14 5 25
10 25 6 0 10 -5 10 -11 0 -6 14 -9 33 -7 22 2 35 10 42 26 6 13 18 22 32 22
21 0 23 -5 23 -50 0 -27 5 -50 10 -50 6 0 10 5 10 10 0 6 7 10 15 10 23 0 18
-15 -10 -30 -19 -10 -24 -20 -23 -47 1 -18 7 -38 13 -43 9 -7 10 -23 4 -56
-11 -56 -9 -64 18 -86 26 -22 33 -22 33 -3 0 8 6 15 13 15 8 0 14 15 15 43 3
67 13 117 23 117 5 0 9 14 9 30 0 22 5 30 18 31 11 0 12 2 4 6 -7 3 -19 -1
-27 -7 -8 -7 -15 -10 -15 -7 0 3 -3 12 -6 21 -4 11 4 17 31 22 32 6 41 19 12
19 -7 0 -13 12 -15 28 -3 25 -1 27 32 27 25 0 36 -4 36 -15 0 -8 -4 -15 -8
-15 -16 0 -13 -62 4 -75 10 -7 15 -19 11 -29 -9 -24 -27 -20 -28 7 0 21 -1 21
-8 2 -5 -11 -3 -30 2 -43 8 -17 8 -29 -1 -43 -7 -10 -12 -30 -12 -44 0 -16 -6
-25 -16 -25 -13 0 -15 -14 -12 -93 l3 -93 -25 4 c-14 3 -29 11 -33 18 -4 8
-12 14 -17 14 -16 0 -11 -22 8 -36 11 -9 13 -13 4 -14 -16 0 -42 24 -42 39 0
6 -7 11 -15 11 -10 0 -15 -10 -15 -30 0 -16 -4 -30 -9 -30 -5 0 -11 -12 -13
-27 -5 -42 -28 -41 -28 1 0 24 -5 36 -14 36 -17 0 -14 48 7 137 9 36 11 63 6
65 -13 4 -20 66 -8 73 12 8 12 55 -1 55 -6 0 -15 10 -20 23 l-9 22 -7 -22
c-11 -38 -34 -28 -34 15 l-1 37 -22 -28 c-21 -25 -25 -26 -42 -12 -31 23 -37
18 -35 -27 1 -24 1 -65 1 -91 -1 -48 -1 -49 -33 -47 -56 3 -60 2 -49 -19 6
-10 7 -21 4 -25 -3 -3 8 -6 26 -6 19 0 30 4 26 10 -3 5 1 10 9 10 9 0 16 -9
16 -20 0 -11 5 -20 10 -20 6 0 10 -9 10 -21 0 -11 -4 -17 -10 -14 -15 9 -12
-21 3 -33 16 -13 16 -68 0 -65 -10 2 -28 -41 -25 -58 1 -3 -17 -3 -39 1 -23 4
-49 5 -60 3 -18 -5 -19 2 -19 126 l0 131 -30 1 c-54 2 -65 4 -77 12 -8 5 -13
4 -13 -2 0 -6 -20 -11 -45 -11 -34 0 -43 -3 -39 -14 3 -8 12 -12 21 -9 24 9
30 -12 21 -74 -20 -145 -21 -152 -4 -169 9 -9 15 -21 13 -28 -6 -18 -36 -19
-53 -2 -25 25 -54 20 -54 -9 0 -14 -4 -25 -10 -25 -5 0 -10 11 -10 25 0 16 -6
25 -15 25 -8 0 -15 4 -15 9 0 13 37 20 49 8 7 -7 8 -3 4 12 -3 14 -13 21 -29
21 -24 0 -24 0 -24 123 l0 122 -80 3 -80 3 18 -32 c13 -24 14 -33 5 -36 -9 -3
-13 -31 -13 -88 0 -74 -2 -86 -20 -95 -27 -14 -16 -30 20 -30 16 0 32 -5 35
-11 5 -7 -6 -9 -31 -7 -29 2 -42 9 -49 26 -5 12 -18 22 -27 22 -23 0 -13 -26
13 -33 10 -3 19 -13 18 -24 0 -10 -3 -13 -6 -5 -2 6 -11 12 -19 12 -8 0 -14 4
-14 9 0 6 -11 22 -25 37 -14 15 -25 36 -25 48 0 12 -7 30 -15 40 -8 11 -15 32
-15 47 0 15 -4 29 -9 31 -5 2 -11 21 -12 43 -4 44 -15 53 -66 54 l-33 1 -1
-57 c-3 -87 -3 -89 -18 -106 -9 -11 -10 -17 -2 -17 6 0 11 -7 11 -15 0 -8 -4
-15 -10 -15 -5 0 -10 -7 -10 -15 0 -9 -9 -15 -25 -15 -14 0 -25 -4 -25 -10 0
-5 15 -10 34 -10 38 0 49 -10 40 -34 -6 -16 -34 -23 -34 -8 0 21 -30 6 -41
-21 -12 -28 -13 -29 -20 -8 -5 11 -15 21 -24 21 -21 0 -19 36 3 50 12 8 13 13
5 16 -7 3 -13 12 -13 20 0 8 -7 14 -15 14 -8 0 -15 6 -15 14 0 8 -4 16 -9 18
-13 5 -91 120 -91 135 0 7 -4 13 -10 13 -5 0 -10 -15 -10 -32 0 -61 -13 -138
-21 -132 -5 3 -9 0 -9 -5 0 -6 -18 -11 -39 -11 -22 0 -42 -6 -45 -12 -5 -10
-7 -10 -12 0 -3 6 -12 12 -20 12 -8 0 -14 7 -14 15 0 8 -4 15 -8 15 -5 0 -25
16 -45 35 -20 19 -38 35 -41 35 -3 0 -6 -17 -8 -37 -2 -21 -9 -39 -15 -39 -30
-3 -33 -4 -33 -14 0 -5 16 -10 35 -10 19 0 35 -4 35 -9 0 -15 82 -28 115 -19
49 13 95 10 95 -7 0 -8 5 -15 10 -15 6 0 10 5 10 10 0 6 11 10 25 10 16 0 25
-6 25 -15 0 -8 4 -15 10 -15 5 0 12 -11 16 -25 3 -14 10 -25 15 -25 5 0 9 -5
9 -12 0 -6 -7 -4 -18 5 -20 19 -67 23 -77 7 -10 -17 -25 -11 -25 10 0 29 -29
24 -36 -6 -6 -22 -8 -24 -16 -10 -5 9 -13 14 -19 11 -5 -4 -9 3 -9 14 0 12 6
21 13 21 16 0 -13 20 -31 20 -8 0 -10 -8 -6 -25 5 -19 2 -25 -10 -25 -9 0 -16
5 -16 10 0 6 -6 10 -14 10 -8 0 -17 10 -19 23 l-4 22 -8 -22 c-4 -13 -13 -23
-20 -23 -13 0 -27 -35 -17 -44 3 -3 16 -6 29 -6 13 0 23 -4 23 -10 0 -6 32
-10 75 -10 58 0 77 -4 81 -15 4 -8 12 -15 20 -15 8 0 14 -6 15 -12 0 -7 6 -2
12 11 9 19 9 25 -1 29 -20 6 -13 21 8 15 10 -3 22 -14 25 -24 8 -25 63 -26 81
-1 12 16 13 16 19 0 5 -12 18 -18 40 -18 18 0 35 -4 37 -9 2 -5 20 -12 41 -16
30 -6 37 -4 37 9 0 19 26 21 33 3 5 -13 92 -15 125 -2 7 2 18 -4 24 -15 12
-18 12 -18 27 2 l14 21 8 -21 c5 -12 16 -22 24 -22 9 0 14 4 11 9 -10 15 58
20 70 5 6 -8 15 -14 20 -14 5 0 8 -18 6 -40 -3 -26 -9 -40 -18 -40 -15 0 -19
-12 -7 -24 16 -15 10 -33 -8 -29 -13 4 -19 0 -19 -12 0 -9 -5 -15 -12 -13 -18
6 -21 28 -4 28 10 0 16 9 16 25 0 14 5 25 10 25 6 0 10 11 10 25 0 14 -4 25
-10 25 -5 0 -10 -7 -10 -15 0 -23 -30 -6 -31 19 0 20 -1 20 -9 1 -5 -11 -11
-29 -15 -40 -6 -19 -7 -19 -19 -2 -16 21 -26 22 -26 2 0 -8 -5 -15 -11 -15 -6
0 -18 -7 -26 -16 -13 -13 -14 -20 -5 -34 9 -14 8 -19 -3 -24 -9 -3 -15 1 -15
10 0 8 -4 12 -10 9 -6 -4 -10 7 -10 24 0 21 -5 31 -15 31 -13 0 -15 -7 -9 -35
6 -33 5 -35 -20 -35 -14 0 -26 5 -26 10 0 6 -7 10 -16 10 -18 0 -44 -23 -44
-39 0 -6 -7 -11 -15 -11 -8 0 -15 6 -15 14 0 8 -6 16 -12 19 -7 2 -9 8 -5 13
4 5 12 2 17 -6 7 -11 12 -12 20 -4 7 7 3 15 -16 25 -22 11 -28 12 -32 1 -7
-22 -52 -66 -59 -58 -4 4 -3 10 3 14 17 12 15 82 -3 82 -11 0 -14 -7 -10 -23
4 -12 3 -27 -1 -33 -7 -12 -52 -29 -64 -26 -5 1 -8 -5 -8 -13 0 -14 -34 -55
-46 -55 -3 0 -12 -7 -20 -15 -9 -8 -20 -15 -25 -15 -5 0 -9 7 -9 15 0 8 -7 15
-15 15 -8 0 -15 5 -15 10 0 6 4 10 9 10 6 0 13 -4 16 -10 11 -18 25 -10 25 14
0 13 6 27 13 30 6 3 2 3 -10 0 -13 -3 -31 -1 -40 5 -10 6 -12 11 -5 11 17 0
16 60 -2 60 -8 0 -17 7 -20 15 -6 16 13 55 26 55 5 0 8 11 8 25 0 14 -4 25
-10 25 -5 0 -10 -11 -10 -25 0 -33 -12 -32 -40 5 -25 33 -40 38 -40 15 0 -18
-46 -21 -52 -2 -3 8 -30 13 -79 14 -43 1 -75 6 -77 12 -2 6 -13 11 -23 11 -11
0 -18 -3 -16 -7 3 -5 -15 -9 -39 -11 -26 -2 -44 2 -44 8 0 5 -13 10 -29 10
-16 0 -31 6 -34 13 -4 9 -7 9 -18 0 -8 -8 -17 -9 -24 -3 -13 11 -64 18 -147
21 -32 1 -58 6 -58 11 0 4 -11 8 -25 8 -14 0 -25 -4 -25 -10 0 -18 -22 -11
-27 9 -4 15 -17 20 -66 24 -34 3 -63 10 -65 16 -2 6 -26 11 -53 11 -37 0 -49
4 -49 15 0 11 -11 15 -40 15 -22 0 -40 4 -40 9 0 5 -18 11 -40 15 -23 4 -38
11 -35 16 4 6 -16 10 -49 10 -31 0 -56 4 -56 9 0 5 -9 13 -21 16 -31 10 -129
111 -129 133 0 11 -7 23 -16 26 -15 6 -15 8 0 25 23 25 17 65 -9 70 -11 2 -24
9 -28 17 -4 8 -17 14 -27 14 -11 0 -20 4 -20 9 0 5 -11 12 -25 15 -14 4 -25
11 -25 16 0 6 -7 10 -15 10 -15 0 -25 6 -60 38 -7 6 -18 12 -23 12 -6 0 -12 7
-16 15 -3 8 -13 15 -21 15 -9 0 -31 16 -49 35 -19 19 -38 35 -45 35 -6 0 -11
6 -11 13 0 8 -11 20 -25 27 -14 7 -25 19 -25 27 0 7 -5 13 -11 13 -6 0 -17 6
-25 14 -8 8 -14 19 -14 25 0 6 -7 11 -15 11 -8 0 -15 5 -15 10 0 6 -12 23 -26
38 -14 15 -32 40 -41 56 -8 16 -26 40 -39 53 -13 13 -24 30 -24 38 0 8 -4 15
-10 15 -5 0 -10 9 -10 19 0 11 -6 26 -13 33 -8 7 -16 29 -20 48 -3 19 -9 47
-12 62 -4 22 -2 27 14 25 15 -1 17 -5 11 -17 -6 -12 -5 -17 5 -17 8 0 12 5 9
11 -3 6 1 3 9 -6 8 -10 16 -15 19 -12 3 2 8 -2 12 -11 4 -11 2 -14 -7 -10 -6
4 -1 -2 12 -13 14 -11 30 -18 36 -15 7 2 29 -6 49 -18 l36 -21 11 32 c8 22 15
28 22 21 6 -6 16 -11 21 -11 6 0 4 5 -4 10 -8 5 -10 10 -5 10 6 0 28 -16 50
-35 55 -48 59 -46 55 16 -2 36 27 46 52 19 23 -25 50 -26 71 -2 15 16 17 21
17 41 0 19 30 19 69 0 22 -10 44 -19 49 -19 13 0 53 -50 47 -59 -2 -5 2 -14
10 -21 8 -7 15 -18 15 -25 0 -7 7 -15 15 -19 9 -3 15 0 15 8 0 8 7 16 15 20
20 7 19 21 -4 43 -35 34 -54 97 -34 117 9 8 73 -54 73 -71z m4058 -478 c-2
-36 -15 -44 -36 -23 -9 9 -12 8 -12 -5 0 -9 -7 -17 -15 -17 -8 0 -15 -6 -15
-12 0 -10 -2 -10 -9 0 -16 26 -20 -14 -5 -43 10 -20 11 -32 4 -39 -5 -5 -10
-29 -10 -52 0 -25 -6 -47 -15 -54 -8 -7 -15 -19 -15 -26 0 -8 -4 -14 -10 -14
-5 0 -10 -9 -10 -19 0 -11 -7 -26 -15 -35 -8 -8 -15 -24 -15 -36 0 -23 -21
-50 -39 -50 -6 0 -11 -5 -11 -11 0 -6 -13 -24 -30 -41 -16 -16 -30 -33 -30
-36 0 -12 -69 -46 -77 -38 -11 11 -14 46 -3 46 6 0 10 11 10 24 0 19 4 23 21
19 15 -4 22 0 26 16 3 11 9 21 13 21 5 0 12 9 15 20 4 11 11 18 16 15 5 -4 9
-1 9 4 0 6 7 11 15 11 9 0 15 9 15 25 0 14 5 25 10 25 6 0 10 16 10 35 0 22 6
38 15 41 9 4 15 19 15 37 0 34 36 117 51 117 17 0 9 39 -11 50 -20 11 -20 11
-1 31 16 17 29 20 65 17 25 -2 46 0 46 4 0 5 -5 8 -11 8 -5 0 -7 5 -4 10 3 6
15 10 26 10 16 0 19 -6 17 -35z m622 -54 c0 -22 -5 -41 -10 -43 -6 -2 -12 -12
-14 -23 -6 -26 -35 -83 -47 -90 -5 -4 -9 -15 -9 -26 0 -11 -4 -17 -10 -14 -5
3 -10 -1 -10 -9 0 -9 -7 -16 -15 -16 -9 0 -15 -9 -15 -25 0 -16 -6 -25 -15
-25 -8 0 -15 -6 -15 -14 0 -8 -6 -17 -12 -20 -10 -5 -10 -7 0 -12 18 -8 15
-51 -5 -58 -9 -4 -20 -3 -25 2 -12 12 -55 3 -69 -14 -6 -8 -16 -14 -22 -14 -5
0 -20 -11 -33 -25 -13 -14 -32 -25 -44 -25 -24 0 -24 0 -5 36 13 25 13 29 0
37 -22 12 -18 30 4 24 15 -4 18 -1 14 12 -4 9 -2 13 2 9 5 -5 16 5 26 21 29
48 52 71 71 71 10 0 18 5 18 10 0 6 6 10 14 10 7 0 16 8 20 18 3 9 14 31 25
47 11 17 20 37 21 45 1 21 46 70 65 70 8 0 15 5 15 11 0 15 52 68 68 69 7 0
12 -14 12 -39z m-1471 -141 c-2 -80 -2 -171 -1 -202 1 -32 -2 -58 -6 -58 -12
0 -72 -55 -72 -66 0 -5 -11 -18 -25 -28 -14 -10 -25 -26 -25 -34 0 -12 -3 -13
-11 -5 -12 12 -16 199 -5 210 9 10 26 -8 26 -29 0 -22 10 -20 14 4 1 7 7 22
13 33 6 11 13 47 17 80 3 33 10 61 16 63 5 2 10 26 10 52 0 27 5 52 10 55 16
10 12 55 -6 55 -8 0 -12 5 -9 11 4 5 18 9 32 7 l25 -3 -3 -145z m1132 75 c-1
-27 -6 -52 -11 -55 -4 -3 -10 -15 -14 -27 -4 -13 -12 -23 -17 -23 -5 0 -9 -13
-9 -30 0 -22 5 -30 18 -31 11 -1 8 -4 -8 -8 -18 -5 -26 -14 -28 -36 -2 -28 -1
-29 12 -12 9 12 16 14 21 8 3 -6 1 -11 -4 -11 -6 0 -11 -13 -11 -30 0 -29 -6
-33 -40 -31 -9 0 -10 -2 -3 -5 7 -3 11 -11 9 -17 -1 -7 -1 -9 1 -4 9 15 33 6
33 -13 0 -11 -3 -20 -7 -21 -5 0 -16 -2 -26 -4 -27 -5 -47 22 -41 54 4 20 1
30 -10 34 -9 4 -16 2 -16 -4 0 -13 -107 -119 -120 -119 -6 0 -10 -4 -10 -8 0
-5 -11 -14 -23 -19 -22 -10 -25 -8 -36 23 -7 18 -17 33 -24 31 -6 -1 -13 9
-15 23 l-4 25 23 -20 c22 -18 22 -18 9 -1 -13 17 -13 19 0 14 8 -3 15 -17 15
-33 1 -16 6 -30 13 -33 7 -2 12 6 12 18 0 13 22 44 55 77 30 30 55 61 55 69 0
8 4 14 8 14 13 0 42 57 42 84 0 15 4 34 8 44 5 9 17 35 28 57 12 26 27 41 41
43 12 2 27 10 34 18 7 8 19 14 28 12 12 -2 15 -14 12 -53z m489 -51 c0 -37 -5
-52 -25 -70 -14 -13 -25 -30 -25 -37 0 -8 -7 -18 -16 -21 -8 -3 -12 -10 -9
-16 3 -5 -1 -10 -9 -10 -9 0 -16 -7 -16 -15 0 -16 -46 -65 -61 -65 -5 0 -22
-11 -37 -25 -15 -14 -32 -25 -39 -25 -7 0 -13 -4 -13 -10 0 -5 -7 -10 -15 -10
-9 0 -15 9 -15 24 0 13 7 29 15 36 8 7 15 21 15 32 0 10 5 16 10 13 6 -4 10 6
11 22 0 15 3 22 6 16 7 -18 33 9 33 34 0 19 67 83 87 83 15 0 45 28 68 64 25
38 35 32 35 -20z"/>
<path d="M3470 1180 c0 -45 2 -50 23 -50 14 0 26 -10 35 -27 16 -35 15 -46 -2
-40 -10 4 -14 0 -13 -14 1 -10 5 -19 9 -19 5 0 14 -12 21 -27 14 -33 32 -53
46 -53 16 0 13 17 -4 24 -12 4 -15 26 -15 107 0 84 -3 105 -19 125 -13 17 -21
20 -24 12 -4 -10 -6 -10 -6 0 -1 6 -12 12 -26 12 -23 0 -25 -3 -25 -50z"/>
<path d="M2780 1110 c0 -11 7 -20 15 -20 8 0 15 -3 15 -8 0 -4 10 -12 23 -17
12 -6 22 -17 22 -25 0 -11 -11 -14 -50 -11 -51 3 -70 10 -47 18 6 3 12 12 12
21 -1 15 -2 15 -14 0 -7 -10 -17 -18 -22 -18 -6 0 -10 -9 -11 -19 -1 -13 7
-21 23 -25 13 -4 24 -11 24 -16 0 -6 20 -10 44 -10 26 0 48 -6 56 -15 17 -20
60 -20 60 1 0 23 24 11 28 -14 5 -31 67 -32 75 -2 4 16 0 20 -18 20 -13 0 -27
5 -30 10 -3 6 -1 10 4 10 6 0 11 4 11 10 0 6 -9 6 -22 1 -13 -4 -29 -6 -35 -4
-15 5 -17 33 -3 33 6 0 10 5 10 10 0 6 -9 10 -20 10 -18 0 -25 -10 -21 -32 0
-5 -5 -8 -13 -8 -17 0 -28 24 -20 45 5 11 -3 17 -26 21 -22 5 -28 9 -18 15 10
7 8 9 -7 10 -11 1 -24 1 -29 0 -5 -1 -6 5 -3 14 4 8 2 15 -3 15 -6 0 -10 -9
-10 -20z"/>
</g>
</svg>
