<?xml version="1.0" encoding="utf-8"?>
<!-- Generator: Adobe Illustrator 19.2.1, SVG Export Plug-In . SVG Version: 6.00 Build 0)  -->
<svg version="1.1" id="layer" xmlns="http://www.w3.org/2000/svg" xmlns:xlink="http://www.w3.org/1999/xlink" x="0px" y="0px"
	 viewBox="0 0 652 652" style="enable-background:new 0 0 652 652;" xml:space="preserve">
<style type="text/css">
	.st0{fill:#E31837;}
	.st1{fill:#1F1E21;}
	.st2{fill:url(#SVGID_1_);}
	.st3{fill:url(#SVGID_2_);}
	.st4{fill:url(#SVGID_3_);}
	.st5{fill:#FFFFFF;}
</style>
<g>
	<path class="st0" d="M585.7,331l15.8,25.8h18.6l-24.6-40.9L585.7,331z M472.8,257.5h-19.1l25.5,41.9L488,284L472.8,257.5z
		 M316.7,255.6c-29.3,0-51.5,22.2-51.5,51.6c0,18.7,8,33.8,23.3,43.5l7.6-14.3l-0.1,0c-9.7-6.9-14.2-16.2-14.2-29.2
		c0-21,14.3-35.7,34.8-35.7s34.8,14.7,34.8,35.7c0,20.7-14.6,35.7-34.8,35.7c-2.6,0-5.3-0.3-7.9-0.9l-0.8-0.2l-7.3,14.6l2.7,0.7
		c4.2,1.1,8.7,1.7,13.3,1.7c29.3,0,51.4-22.2,51.4-51.6C368.1,277.8,346,255.6,316.7,255.6 M446.2,286.8c0-12.5-6.2-22.2-17.1-26.6
		l-2.1-0.9l-6.1,14.5l1.6,0.8c4.8,2.4,7.7,6.9,7.7,12.1c0,8.1-5.6,13.5-13.8,13.5h-15.8v-27h8.5l6.5-15.8H384v99.2h16.5v-40.7h8.5
		l24.1,40.7h19.8L427,314C439.7,309.4,446.2,300.3,446.2,286.8 M486.1,310.1v46.6h16.5v-42.8l32.3-56.4h-19L486.1,310.1z
		 M599.8,257.5l-20.5,32.1l-19.2-32.1h-19l28.6,47.3l-32.4,51.9h18.8l62.6-99.2L599.8,257.5z"/>
</g>
<path class="st1" d="M289,415.1l-2.8,5.7h17.6l2.6-5.7H289z M276,370.9v49.9h3.7l2.8-5.7v-18.3h18l2.6-5.7h-20.6v-14.4h21.2l2.6-5.7
	L276,370.9L276,370.9z M319.1,420.8h6.5v-26.7l-6.5-6.7C319.1,387.5,319.1,420.8,319.1,420.8z M319.1,378.7l42,43.3v-51h-6.6v35.4
	l-35.4-36.5L319.1,378.7L319.1,378.7z M388.8,415.1l-2.8,5.7h17.6l2.6-5.7H388.8z M375.8,370.9v49.9h3.7l2.8-5.7v-18.3h18l2.6-5.7
	h-20.6v-14.4h21.2l2.6-5.7L375.8,370.9L375.8,370.9z"/>
<g>
	<path class="st1" d="M418.9,370.9h17.6l-2.7,5.7h-8.4v16.9h10.3c5.7,0,9.2-3.7,9.2-8.5c0-3.4-2.1-6.2-5.1-7.6l2.6-5.3
		c5.5,2.1,8.8,6.7,8.8,12.9c0,7.2-3.8,11.6-11.5,13.6l14.2,22.1h-7.9l-13.6-21.6h-6.9v21.6h-6.5L418.9,370.9L418.9,370.9z
		 M488,416.2c10.8,0,18-5.8,18.9-14.3h-18.6l2.5-5.7H514v2c0,13.7-9.2,23.7-26.4,23.7c-2.8,0-5.6-0.4-8.3-1.3l2.7-5.3
		C484,415.9,485.9,416.2,488,416.2 M461,396.1c0-14.4,11.2-26.2,27.3-26.2c10.1,0,16.4,3.7,21.5,9.6l-4.6,4.2
		c-3.8-4.9-10.1-8-16.5-8c-13.2,0-21,9.3-21,20.2c0,7.1,2.8,12.5,9.3,16.8l-2.7,5.6C466,413.6,461,406.3,461,396.1"/>
</g>
<path class="st1" d="M526.7,370.9h6.5v49.9h-6.5V370.9z M561.1,415.1l-2.8,5.7h17.6l2.6-5.7H561.1z M548.1,370.9v49.9h3.7l2.8-5.7
	v-18.3h18l2.6-5.7h-20.6v-14.4h21.2l2.6-5.7L548.1,370.9L548.1,370.9z M604,421.9c-7.3,0-11.5-2-15.5-5.3l3.9-4.9
	c3.8,3.1,7.6,4.4,12.1,4.4c5.3,0,9.9-2.7,9.9-7.8c0-4.8-3.1-7.1-9.4-10l-3.7-1.7c-6.1-2.7-10.8-5.9-10.8-13.6
	c0-8.2,6.6-13.2,16.1-13.2c6.2,0,9.8,1.7,13.4,4.2l-3.5,4.8c-3.7-2.7-6.6-3.3-9.8-3.3c-6,0-9.6,2.9-9.6,7.3c0,4.6,4.1,6.6,7.3,8
	l4,1.8c7.3,3.3,12.6,6.8,12.6,15.1C621.1,416.5,614.1,421.9,604,421.9"/>
<path class="st0" d="M230.3,321.2c0.1-27.4-11.1-54.4-30.7-74.1c-19.5-19.6-45.8-30.5-74-30.5c-57.5,0-104.4,46.9-104.5,104.6
	C21.1,357.8,41,383,45.1,387.8l-15.6,33.4h30.4l0.4-0.9c0.7-1.7,71.5-161,78.1-175.3c31.9,4.9,64.6,34.4,64.6,76.2
	c0,17.9-6.8,32.2-9.9,37.8l-15.6-33.4H125l-11.3,25.5h46.7l13.6,30.5c-4,3.3-22,16.9-48.5,16.9c-12.9,0-23.3-3.3-30.2-6.2
	l-11.2,25.1c9.4,4,23.8,8.6,41.2,8.6h0.2c32.1-0.1,53.9-14.3,59.9-18.8l6.2,14.1h30.5l-15.6-33.6C210.6,382.8,230.2,358,230.3,321.2
	L230.3,321.2z"/>
<g>
	
		<linearGradient id="SVGID_1_" gradientUnits="userSpaceOnUse" x1="55.2018" y1="282.5748" x2="80.5244" y2="306.4164" gradientTransform="matrix(1 0 0 -1 0 652)">
		<stop  offset="0" style="stop-color:#2B2827"/>
		<stop  offset="0.147" style="stop-color:#53242B"/>
		<stop  offset="0.356" style="stop-color:#86202F"/>
		<stop  offset="0.553" style="stop-color:#AE1D32"/>
		<stop  offset="0.732" style="stop-color:#CB1A35"/>
		<stop  offset="0.887" style="stop-color:#DD1936"/>
		<stop  offset="1" style="stop-color:#E31837"/>
	</linearGradient>
	<path class="st2" d="M79.6,313.5l-21.1,45.1c5.2,8.5,11.7,16.1,19.1,22.7c10-22.6,20.1-45.2,30.1-67.8L79.6,313.5L79.6,313.5z"/>
	
		<linearGradient id="SVGID_2_" gradientUnits="userSpaceOnUse" x1="187.4955" y1="292.1385" x2="212.868" y2="304.3484" gradientTransform="matrix(1 0 0 -1 0 652)">
		<stop  offset="0" style="stop-color:#2B2827"/>
		<stop  offset="0.158" style="stop-color:#57242B"/>
		<stop  offset="0.362" style="stop-color:#88202F"/>
		<stop  offset="0.555" style="stop-color:#B01C33"/>
		<stop  offset="0.732" style="stop-color:#CC1A35"/>
		<stop  offset="0.886" style="stop-color:#DD1936"/>
		<stop  offset="1" style="stop-color:#E31837"/>
	</linearGradient>
	<path class="st3" d="M206.5,387.6c2.5-2.9,10.9-13.5,17-29.7l-20.8-43.4c0.2,2.2,0.3,4.4,0.3,6.6c0,17.9-6.8,32.2-9.9,37.7
		l13.8,29.7h0L206.5,387.6L206.5,387.6z"/>
	
		<linearGradient id="SVGID_3_" gradientUnits="userSpaceOnUse" x1="134.1933" y1="403.2773" x2="161.3339" y2="416.34" gradientTransform="matrix(1 0 0 -1 0 652)">
		<stop  offset="0" style="stop-color:#2B2827"/>
		<stop  offset="0.138" style="stop-color:#51252A"/>
		<stop  offset="0.351" style="stop-color:#84202F"/>
		<stop  offset="0.551" style="stop-color:#AD1D32"/>
		<stop  offset="0.732" style="stop-color:#CB1A35"/>
		<stop  offset="0.888" style="stop-color:#DD1936"/>
		<stop  offset="1" style="stop-color:#E31837"/>
	</linearGradient>
	<path class="st4" d="M125.5,216.6h-0.3l13.2,28.3c13.9,2.1,27.9,8.9,39.4,19.4l-16.4-41.5c-11.4-4.1-23.5-6.2-35.7-6.2H125.5z"/>
</g>
<path class="st5" d="M58.5,358.7c-4.9-9-19.3-40.4-0.5-74.1c17.2-30.7,44.7-37.9,53.5-39.4L58.5,358.7L58.5,358.7z"/>
</svg>
